name rise32.9588peak41.5061fall63.4684.mot
datacolumns 19
datarows 14
range 0.77333000000000 0.79499500000000
endheader
time	ground_force1_vx	ground_force1_vy	ground_force1_vz	ground_force1_px	ground_force1_py	ground_force1_pz	ground_force2_vx	ground_force2_vy	ground_force2_vz	ground_force2_px	ground_force2_py	ground_force2_pz	ground_torque1_x	ground_torque1_y	ground_torque1_z	ground_torque2_x	ground_torque2_y	ground_torque2_z	
0.77333000000000	-28.05178300000000	761.06375600000001	47.67369300000000	0.13073700000000	0.00000000000000	0.11424000000000	-3.91117000000000	48.95437200000000	4.41782200000000	0.32585900000000	0.00000000000000	-0.06391300000000	0.00000000000000	19.22467700000000	0.00000000000000	0.00000000000000	2.66561600000000	0.00000000000000	
0.77500100000000	-28.65220500000000	758.80514700000003	47.42383200000000	0.12988600000000	0.00000000000000	0.11409200000000	-4.19957800000000	55.93233800000000	4.89776300000000	0.32977900000000	0.00000000000000	-0.06430500000000	0.00000000000000	19.17365800000000	0.00000000000000	0.00000000000000	2.99141200000000	0.00000000000000	
0.77666700000000	-29.26964900000000	756.45953899999995	47.16044200000000	0.12904000000000	0.00000000000000	0.11394200000000	-4.40994800000000	62.82893100000000	5.33011500000000	0.33346500000000	0.00000000000000	-0.06465200000000	0.00000000000000	19.12388000000000	0.00000000000000	0.00000000000000	3.29615400000000	0.00000000000000	
0.77832900000000	-29.90380800000000	754.02543200000002	46.88329600000000	0.12820200000000	0.00000000000000	0.11378800000000	-4.53508200000000	69.57230400000000	5.70738000000000	0.33694800000000	0.00000000000000	-0.06496100000000	0.00000000000000	19.07534400000000	0.00000000000000	0.00000000000000	3.57495300000000	0.00000000000000	
0.77999800000000	-30.55431300000000	751.50128299999994	46.59218400000000	0.12737200000000	0.00000000000000	0.11363200000000	-4.57151300000000	76.11750000000001	6.02533700000000	0.34025000000000	0.00000000000000	-0.06523700000000	0.00000000000000	19.02803500000000	0.00000000000000	0.00000000000000	3.82479400000000	0.00000000000000	
0.78166000000000	-31.22074100000000	748.88550399999997	46.28691800000000	0.12655200000000	0.00000000000000	0.11347200000000	-4.51920100000000	82.44590300000000	6.28284900000000	0.34339000000000	0.00000000000000	-0.06548600000000	0.00000000000000	18.98193100000000	0.00000000000000	0.00000000000000	4.04447500000000	0.00000000000000	
0.78333000000000	-31.90260700000000	746.17646600000000	45.96733100000000	0.12574200000000	0.00000000000000	0.11330800000000	-4.38100400000000	88.56263100000000	6.48145200000000	0.34638200000000	0.00000000000000	-0.06571100000000	0.00000000000000	18.93699200000000	0.00000000000000	0.00000000000000	4.23440900000000	0.00000000000000	
0.78501100000000	-32.59937000000000	743.37249799999995	45.63328200000000	0.12494300000000	0.00000000000000	0.11314200000000	-4.16201200000000	94.49242300000000	6.62479400000000	0.34923900000000	0.00000000000000	-0.06591600000000	0.00000000000000	18.89317000000000	0.00000000000000	0.00000000000000	4.39631700000000	0.00000000000000	
0.78666900000000	-33.31043000000000	740.47188600000004	45.28465000000000	0.12415500000000	0.00000000000000	0.11297200000000	-3.86880700000000	100.27463700000000	6.71800800000000	0.35196900000000	0.00000000000000	-0.06610400000000	0.00000000000000	18.85040100000000	0.00000000000000	0.00000000000000	4.53287200000000	0.00000000000000	
0.78833000000000	-34.03512900000000	737.47288200000003	44.92134500000000	0.12338100000000	0.00000000000000	0.11279800000000	-3.50874900000000	105.95792500000000	6.76705800000000	0.35458100000000	0.00000000000000	-0.06627700000000	0.00000000000000	18.80861000000000	0.00000000000000	0.00000000000000	4.64732200000000	0.00000000000000	
0.78999500000000	-34.77275100000000	734.37369799999999	44.54330000000000	0.12261900000000	0.00000000000000	0.11262200000000	-3.08931200000000	111.59506900000000	6.77814700000000	0.35708100000000	0.00000000000000	-0.06643700000000	0.00000000000000	18.76771000000000	0.00000000000000	0.00000000000000	4.74313100000000	0.00000000000000	
0.79166500000000	-35.52252300000000	731.17251499999998	44.15047800000000	0.12187100000000	0.00000000000000	0.11244200000000	-2.61754000000000	117.23837200000000	6.75720000000000	0.35947400000000	0.00000000000000	-0.06658700000000	0.00000000000000	18.72759800000000	0.00000000000000	0.00000000000000	4.82365600000000	0.00000000000000	
0.79332900000000	-36.28361500000000	727.86748299999999	43.74286900000000	0.12113600000000	0.00000000000000	0.11225900000000	-2.09963100000000	122.93585899999999	6.70946100000000	0.36176300000000	0.00000000000000	-0.06672900000000	0.00000000000000	18.68816400000000	0.00000000000000	0.00000000000000	4.89189600000000	0.00000000000000	
0.79499500000000	-37.05513700000000	724.45672500000001	43.32049500000000	0.12041600000000	0.00000000000000	0.11207200000000	-1.54066200000000	128.72845400000000	6.63920800000000	0.36395100000000	0.00000000000000	-0.06686300000000	0.00000000000000	18.64928000000000	0.00000000000000	0.00000000000000	4.95030100000000	0.00000000000000	
